<?xml version="1.0" encoding="utf-8"?>
<!-- Generator: Adobe Illustrator 18.0.0, SVG Export Plug-In . SVG Version: 6.00 Build 0)  -->
<!DOCTYPE svg PUBLIC "-//W3C//DTD SVG 1.1//EN" "http://www.w3.org/Graphics/SVG/1.1/DTD/svg11.dtd">
<svg version="1.1" id="Layer_1" xmlns="http://www.w3.org/2000/svg" xmlns:xlink="http://www.w3.org/1999/xlink" x="0px" y="0px"
	 viewBox="0 0 512 512" enable-background="new 0 0 512 512" xml:space="preserve">
<g>
	<circle fill="#F1C40F" stroke="#000000" stroke-width="10" stroke-miterlimit="10" cx="256.7" cy="283.2" r="185.2"/>
	<polyline fill="#F1C40F" stroke="#000000" stroke-width="10" stroke-miterlimit="10" points="87.2,217.2 18.1,43.5 191.8,112.6 	
		"/>
	<polyline fill="#F1C40F" stroke="#000000" stroke-width="10" stroke-miterlimit="10" points="426,217.2 494.2,43.5 320.5,111.7 	
		"/>
	<circle stroke="#000000" stroke-miterlimit="10" cx="333" cy="252.7" r="59.2"/>
	<g>
		<rect x="117.5" y="251.5" width="118.4" height="2.5"/>
		<g>
			<path d="M235.9,249.5c-39.5,0-78.9,0-118.4,0c1.5,1.5,3,3,4.5,4.5c0-0.8,0-1.7,0-2.5c-1.5,1.5-3,3-4.5,4.5c39.5,0,78.9,0,118.4,0
				c-1.5-1.5-3-3-4.5-4.5c0,0.8,0,1.7,0,2.5c0,5.8,9,5.8,9,0c0-0.8,0-1.7,0-2.5c0-2.5-2-4.5-4.5-4.5c-39.5,0-78.9,0-118.4,0
				c-2.5,0-4.5,2-4.5,4.5c0,0.8,0,1.7,0,2.5c0,2.5,2,4.5,4.5,4.5c39.5,0,78.9,0,118.4,0C241.7,258.5,241.7,249.5,235.9,249.5z"/>
		</g>
	</g>
	<path stroke="#000000" stroke-width="2" stroke-miterlimit="10" d="M282.1,328.1l-19.5,26.2c-3.2,4.2-11,4.2-14.2,0l-19.5-26.2
		c-3.2-4.2,0.8-9.5,7.1-9.5h39C281.3,318.5,285.2,323.8,282.1,328.1z"/>
	<g>
		<g>
			<g>
				<g>
					<path d="M254.2,361.1c3.9,0,3.9-6,0-6S250.3,361.1,254.2,361.1L254.2,361.1z"/>
				</g>
			</g>
			<g>
				<g>
					<path d="M254,358.1c0.2,17.9,8.3,35.1,24.5,43.7c21.3,11.3,47.2,3.2,67-7.1c3.4-1.8,0.4-7-3-5.2c-18.2,9.5-41.3,16.9-61,7.1
						c-14.5-7.2-21.4-22.9-21.5-38.5C260,354.2,254,354.2,254,358.1L254,358.1z"/>
				</g>
			</g>
		</g>
		<g>
			<g>
				<g>
					<path d="M256.3,361.1c3.9,0,3.9-6,0-6S252.4,361.1,256.3,361.1L256.3,361.1z"/>
				</g>
			</g>
			<g>
				<g>
					<path d="M250.5,358.1c-0.1,15.9-7.1,30.9-21.5,38.5c-19.2,10.2-43.2,2.1-61-7.1c-3.4-1.8-6.5,3.4-3,5.2
						c20.3,10.6,45.3,18,67,7.1c16.3-8.1,24.3-26.1,24.5-43.7C256.5,354.2,250.5,354.2,250.5,358.1L250.5,358.1z"/>
				</g>
			</g>
		</g>
	</g>
	<path fill="#ECF0F1" stroke="#000000" stroke-width="10" stroke-miterlimit="10" d="M320.4,110.8l-64.1,100.8l-64.1-100.8
		C235,94.1,277.7,94.4,320.4,110.8z"/>
</g>
</svg>
